<svg xmlns="http://www.w3.org/2000/svg" viewBox="0 0 1200 760">
<rect width="1200" height="760" rx="36" fill="#f7fbfb"/>
<text x="600" y="58" text-anchor="middle" font-size="32" font-weight="700" fill="#174f52">神経から筋収縮までの流れ</text>
<text x="600" y="92" text-anchor="middle" font-size="19" fill="#6b7f80">神経筋接合部からCa²⁺放出・収縮開始まで</text>

<g font-size="23" font-weight="700" fill="#174f52">
<rect x="90" y="145" width="300" height="90" rx="20" fill="#e1f0ef"/><text x="240" y="200" text-anchor="middle">① 活動電位到達</text>
<rect x="450" y="145" width="300" height="90" rx="20" fill="#e1f0ef"/><text x="600" y="200" text-anchor="middle">② ACh放出</text>
<rect x="810" y="145" width="300" height="90" rx="20" fill="#e1f0ef"/><text x="960" y="200" text-anchor="middle">③ ACh受容体</text>

<rect x="270" y="340" width="300" height="90" rx="20" fill="#e8f4f3"/><text x="420" y="395" text-anchor="middle">④ T管へ伝達</text>
<rect x="630" y="340" width="300" height="90" rx="20" fill="#e8f4f3"/><text x="780" y="395" text-anchor="middle">⑤ Ca²⁺放出</text>

<rect x="450" y="535" width="300" height="90" rx="20" fill="#d6e9e7"/><text x="600" y="590" text-anchor="middle">⑥ トロポニン結合</text>
</g>

<g stroke="#0d6f73" stroke-width="7" fill="none">
<path d="M390 190 H450"/><path d="M750 190 H810"/>
<path d="M960 235 V285 H420 V340"/>
<path d="M570 385 H630"/>
<path d="M780 430 V485 H600 V535"/>
</g>
<g fill="#0d6f73">
<path d="M442 190 l-16 -10 v20z"/><path d="M802 190 l-16 -10 v20z"/>
<path d="M412 340 l-10 -16 h20z"/><path d="M622 385 l-16 -10 v20z"/><path d="M600 527 l-10 -16 h20z"/>
</g>
<text x="600" y="680" text-anchor="middle" font-size="21" fill="#5c7172">→ トロポミオシン移動 → 結合部位露出 → クロスブリッジ形成</text>
</svg>